<?xml version="1.0" standalone="no"?>
<!DOCTYPE svg PUBLIC "-//W3C//DTD SVG 20010904//EN"
 "http://www.w3.org/TR/2001/REC-SVG-20010904/DTD/svg10.dtd">
<svg version="1.0" xmlns="http://www.w3.org/2000/svg"
 width="512.000000pt" height="512.000000pt" viewBox="0 0 512.000000 512.000000"
 preserveAspectRatio="xMidYMid meet">
<metadata>
Created by potrace 1.11, written by Peter Selinger 2001-2013
</metadata>
<g transform="translate(0.000000,512.000000) scale(0.100000,-0.100000)"
fill="#000000" stroke="none">
<path d="M3985 4635 c-60 -16 -80 -39 -95 -110 -22 -104 -2 -232 41 -271 23
-21 25 -57 2 -75 -9 -8 -24 -33 -35 -55 -10 -23 -24 -47 -32 -53 -10 -9 -69
-11 -208 -9 l-193 3 -48 33 c-71 49 -146 81 -232 97 -90 18 -687 22 -744 5
-46 -13 -79 -46 -91 -92 -8 -26 -18 -40 -33 -44 -13 -3 -113 -4 -224 -2 l-201
3 -53 36 c-149 101 -209 111 -654 107 -395 -3 -385 -1 -427 -90 l-28 -58 -132
-1 c-200 -1 -213 -16 -18 -20 l165 -3 -155 -6 c-85 -3 -163 -9 -172 -14 -10
-4 -20 -18 -24 -29 -4 -12 -7 -663 -7 -1446 l0 -1424 22 -19 c21 -16 43 -18
208 -18 120 0 182 -3 178 -10 -4 -6 -75 -10 -181 -10 -137 0 -181 3 -204 15
-17 9 -31 17 -32 18 -2 1 -5 655 -8 1452 l-5 1450 -3 -1438 c-1 -966 1 -1445
8 -1457 21 -39 50 -45 238 -50 203 -6 202 -5 202 -73 0 -58 20 -123 43 -145
12 -10 37 -24 56 -31 44 -14 725 -15 858 0 186 20 325 77 456 184 31 26 73 51
94 56 65 15 376 11 398 -5 14 -10 21 -33 26 -87 9 -80 27 -115 75 -139 41 -21
1009 -22 1094 -2 136 33 191 62 274 146 45 44 93 82 110 87 17 5 111 9 208 9
177 0 177 0 205 26 l28 26 -29 -21 c-27 -20 -42 -21 -222 -21 -118 0 -195 4
-199 10 -4 7 63 10 194 10 l200 0 20 26 21 26 -3 1429 c-2 1355 -3 1429 -20
1446 -15 15 -43 19 -190 23 l-172 6 178 2 c165 2 178 1 197 -18 20 -20 20 -34
21 -1467 0 -817 4 -1439 9 -1428 13 30 12 2811 -1 2858 -17 64 -40 72 -224 76
-88 1 -165 7 -171 12 -6 5 -17 27 -24 49 -7 21 -24 49 -36 61 -13 13 -24 27
-24 32 0 5 15 29 33 54 l32 45 0 128 c0 141 -5 154 -70 188 -40 20 -204 25
-270 7z m-15 -49 c0 -2 -7 -9 -15 -16 -12 -10 -15 -10 -15 4 0 9 7 16 15 16 8
0 15 -2 15 -4z m25 -46 c-27 -27 -45 -50 -40 -50 6 0 32 23 59 50 43 44 86 65
86 42 0 -9 -144 -152 -152 -152 -3 0 -6 24 -6 53 0 42 5 57 26 80 15 15 36 27
51 27 24 0 22 -3 -24 -50z m65 -65 c-97 -98 -116 -112 -118 -94 -5 31 172 209
208 209 21 0 9 -16 -90 -115z m35 -35 c-125 -126 -151 -147 -153 -129 -5 31
242 279 278 279 21 0 2 -23 -125 -150z m185 133 c0 -10 -62 -80 -137 -155
-104 -104 -144 -138 -163 -138 -21 0 -1 24 130 155 85 85 158 155 162 155 5 0
8 -8 8 -17z m0 -69 c0 -9 -46 -63 -102 -120 -76 -78 -108 -104 -127 -104 -22
0 -10 16 94 120 66 66 123 120 127 120 5 0 8 -7 8 -16z m0 -65 c0 -32 -127
-159 -159 -159 -23 0 -16 10 64 90 49 50 91 90 92 90 2 0 3 -9 3 -21z m0 -70
c0 -28 -62 -89 -91 -89 -21 0 -17 6 31 55 30 30 56 55 57 55 2 0 3 -9 3 -21z
m0 -64 c0 -16 -27 -32 -37 -21 -7 7 16 36 28 36 5 0 9 -7 9 -15z m-3416 -153
c3 -5 -10 -24 -29 -42 -34 -33 -35 -33 -35 -10 0 39 48 78 64 52z m69 2 c6 -6
-115 -134 -127 -134 -3 0 -6 10 -6 23 0 14 18 40 50 70 47 44 69 55 83 41z
m67 -2 c0 -4 -45 -52 -100 -107 -88 -88 -100 -97 -100 -74 0 19 22 47 84 107
73 72 116 99 116 74z m70 1 c0 -13 -244 -253 -257 -253 -30 0 -6 33 105 143
103 101 152 137 152 110z m70 -1 c0 -4 -56 -63 -124 -131 -95 -94 -128 -122
-145 -119 -19 2 -2 23 107 131 112 110 162 147 162 119z m70 1 c0 -4 -55 -63
-122 -130 -92 -92 -129 -123 -148 -123 -21 0 -6 19 105 130 112 112 165 152
165 123z m70 0 c0 -4 -55 -63 -122 -130 -92 -92 -129 -123 -148 -123 -21 0 -6
19 105 130 112 112 165 152 165 123z m70 0 c0 -5 -56 -64 -124 -131 -98 -98
-129 -123 -147 -120 -20 3 -7 19 104 131 78 77 135 127 147 127 11 0 20 -3 20
-7z m-55 -123 c-98 -98 -136 -130 -155 -130 -21 0 -6 19 106 130 95 95 137
130 155 130 20 0 2 -22 -106 -130z m185 122 c0 -4 -56 -63 -124 -131 -95 -94
-128 -122 -145 -119 -19 2 -2 23 107 131 112 110 162 147 162 119z m960 0 c0
-5 -9 -17 -20 -27 -19 -18 -20 -17 -20 3 0 18 11 29 33 31 4 1 7 -3 7 -7z m70
0 c0 -4 -25 -32 -55 -62 -50 -50 -55 -52 -55 -30 1 29 39 76 72 90 29 11 38
12 38 2z m70 1 c0 -10 -162 -173 -172 -173 -5 0 -8 9 -8 21 0 26 114 146 144
152 11 2 24 5 29 6 4 0 7 -2 7 -6z m-50 -118 c-105 -106 -126 -122 -128 -104
-3 16 20 46 94 120 54 54 107 100 118 102 12 2 25 5 31 6 5 0 -46 -55 -115
-124z m35 -35 c-133 -134 -161 -157 -163 -139 -3 17 27 53 129 155 73 73 142
135 153 137 12 2 25 5 31 6 5 0 -62 -71 -150 -159z m30 -41 c-157 -157 -191
-186 -193 -168 -3 17 34 60 164 190 146 146 195 185 214 172 2 -2 -81 -89
-185 -194z m35 -35 c-186 -185 -226 -221 -228 -203 -3 17 41 67 199 225 177
177 229 220 249 207 2 -2 -97 -105 -220 -229z m290 226 c0 -3 -117 -122 -260
-265 -235 -235 -260 -257 -260 -230 0 25 35 64 238 265 173 173 243 237 260
236 12 0 22 -3 22 -6z m70 2 c0 -2 -132 -135 -292 -295 -255 -255 -293 -289
-296 -268 -3 21 41 69 270 296 199 199 279 272 296 271 12 0 22 -2 22 -4z
m-71 -138 c-101 -101 -140 -134 -159 -134 -21 0 -4 21 116 140 107 107 145
139 158 134 14 -6 -8 -33 -115 -140z m1091 138 c0 -4 -16 -23 -35 -42 -34 -33
-35 -33 -35 -10 0 13 7 32 17 42 16 18 53 25 53 10z m70 1 c0 -10 -122 -133
-132 -133 -22 0 -2 41 43 88 45 45 89 68 89 45z m-30 -98 c-90 -91 -105 -103
-108 -83 -5 30 154 188 189 188 20 0 6 -17 -81 -105z m160 97 c0 -4 -61 -68
-135 -142 -116 -116 -135 -131 -135 -109 0 19 29 54 118 142 104 102 152 137
152 109z m64 0 c3 -5 -71 -84 -165 -178 -143 -143 -169 -165 -169 -143 0 19
36 61 153 177 146 144 169 163 181 144z m-2844 -127 c-93 -93 -131 -125 -150
-125 -21 0 -6 18 100 125 93 93 131 125 150 125 21 0 6 -18 -100 -125z m174
118 c4 -4 -46 -60 -111 -125 -88 -88 -124 -118 -143 -118 -21 0 -7 18 100 125
119 120 138 134 154 118z m1386 -128 c-101 -101 -141 -135 -160 -135 -21 0 -5
20 110 135 101 101 141 135 160 135 21 0 5 -20 -110 -135z m175 129 c25 -10
-230 -264 -265 -264 -21 0 -5 20 110 135 74 74 136 135 137 135 1 0 9 -3 18
-6z m-1510 -10 c25 -10 -210 -244 -245 -244 -21 0 -7 18 100 125 69 69 126
125 127 125 1 0 9 -3 18 -6z m1575 -13 c0 -3 -53 -59 -118 -124 -86 -86 -124
-117 -142 -117 -21 0 -5 20 104 129 77 77 134 127 142 124 8 -3 14 -8 14 -12z
m-1520 -13 c0 -20 -213 -228 -232 -228 -10 0 -18 3 -18 7 0 13 224 233 237
233 7 0 13 -6 13 -12z m1570 -1 c0 -8 -26 -39 -57 -69 -32 -31 -80 -80 -108
-109 -27 -30 2 -3 65 59 100 97 150 132 150 104 0 -4 -51 -57 -112 -119 -95
-93 -116 -110 -133 -103 -11 5 -33 9 -50 9 -28 1 -24 7 90 121 110 110 155
141 155 107z m1000 -15 c0 -9 -76 -94 -170 -187 -142 -142 -170 -166 -170
-145 0 19 40 65 162 187 90 90 166 163 170 163 5 0 8 -8 8 -18z m-2526 -1 c5
-8 -201 -219 -217 -221 -36 -6 -18 22 78 119 104 106 127 122 139 102z m43
-27 c2 -5 -48 -61 -112 -124 -93 -93 -115 -111 -121 -96 -5 14 19 43 102 127
102 102 123 117 131 93z m1570 0 c2 -5 -46 -59 -107 -119 -87 -87 -112 -107
-122 -97 -10 10 10 35 97 122 103 103 124 118 132 94z m-1531 -25 c4 -6 -44
-61 -112 -130 -97 -97 -120 -116 -127 -103 -7 13 15 41 104 130 63 63 117 114
121 114 4 0 10 -5 14 -11z m1570 0 c6 -11 -222 -249 -238 -249 -5 0 -8 8 -8
17 0 17 216 243 232 243 4 0 10 -5 14 -11z m-1173 -6 c-56 -2 -151 -2 -210 0
-59 1 -13 3 102 3 116 0 164 -2 108 -3z m1555 0 c-53 -2 -143 -2 -200 0 -57 1
-13 3 97 3 110 0 156 -2 103 -3z m492 -10 c0 -9 -75 -93 -167 -185 -141 -141
-169 -165 -171 -147 -3 17 32 58 159 185 90 90 167 164 171 164 5 0 8 -8 8
-17z m-968 -166 c-107 -107 -132 -128 -138 -113 -10 26 246 283 259 260 7 -13
-18 -44 -121 -147z m-1442 141 c0 -14 -239 -258 -252 -258 -29 0 8 50 109 152
111 111 143 135 143 106z m-221 -304 c-237 -237 -281 -276 -297 -260 -10 10
231 246 250 246 10 0 18 7 18 17 0 10 59 77 132 150 108 108 134 130 141 117
8 -13 -43 -69 -244 -270z m2628 254 c-4 -13 -81 -97 -172 -188 -138 -138 -165
-161 -165 -140 0 19 41 66 167 192 92 92 169 165 171 163 3 -2 2 -14 -1 -27z
m-817 4 c0 -20 -273 -295 -283 -285 -4 3 -7 12 -7 20 0 14 269 283 283 283 4
0 7 -8 7 -18z m-1540 -45 c0 -20 -464 -477 -484 -477 -10 0 -16 5 -14 11 7 20
481 488 490 483 4 -3 8 -11 8 -17z m1560 6 c0 -17 -286 -313 -302 -313 -5 0
-8 8 -8 17 0 16 286 313 302 313 4 0 8 -8 8 -17z m800 -23 c0 -12 -62 -82
-165 -185 -90 -91 -167 -165 -170 -165 -3 0 -5 10 -5 22 0 14 53 74 163 184
89 89 165 163 170 163 4 1 7 -8 7 -19z m-2345 -29 c0 -19 -418 -431 -437 -431
-10 0 -18 3 -18 7 0 14 435 443 445 440 5 -2 10 -9 10 -16z m1409 -172 c-87
-88 -162 -159 -166 -159 -30 0 13 54 149 192 129 129 159 155 166 142 7 -13
-23 -49 -149 -175z m-621 148 c-3 -14 -73 -92 -164 -183 -133 -133 -159 -155
-159 -134 0 19 39 64 157 182 87 87 161 158 164 158 3 0 4 -11 2 -23z m1557
-15 c0 -9 -76 -94 -170 -187 -142 -142 -170 -166 -170 -145 0 19 40 65 162
187 90 90 166 163 170 163 5 0 8 -8 8 -18z m-2330 -15 c0 -19 -363 -377 -382
-377 -10 0 -18 3 -18 7 0 14 384 392 392 387 4 -3 8 -10 8 -17z m1394 -188
c-88 -88 -162 -159 -166 -159 -30 0 13 55 155 197 136 137 163 160 165 142 3
-17 -31 -57 -154 -180z m-621 148 c-3 -14 -73 -92 -164 -183 -133 -133 -159
-155 -159 -134 0 19 39 64 157 182 87 87 161 158 164 158 3 0 4 -11 2 -23z
m-935 -204 c-136 -136 -164 -160 -166 -142 -3 17 33 59 160 186 136 136 164
160 166 142 3 -17 -33 -59 -160 -186z m2492 189 c0 -9 -76 -94 -170 -187 -142
-142 -170 -166 -170 -145 0 19 40 65 162 187 90 90 166 163 170 163 5 0 8 -8
8 -18z m-931 -198 c-90 -90 -167 -164 -171 -164 -30 0 14 56 160 202 140 141
168 165 170 147 3 -17 -32 -58 -159 -185z m-626 143 c-3 -14 -73 -92 -164
-183 -133 -133 -159 -155 -159 -134 0 19 39 64 157 182 87 87 161 158 164 158
3 0 4 -11 2 -23z m-773 -36 c-5 -9 -81 -88 -169 -176 -135 -134 -161 -156
-161 -135 0 19 40 65 162 187 103 103 165 158 169 151 4 -7 4 -19 -1 -27z
m2330 21 c0 -9 -76 -94 -170 -187 -142 -142 -170 -166 -170 -145 0 19 40 65
162 187 90 90 166 163 170 163 5 0 8 -8 8 -18z m-931 -198 c-90 -90 -167 -164
-171 -164 -31 0 14 57 160 203 139 139 168 164 170 146 3 -17 -33 -59 -159
-185z m-2444 16 c-149 -150 -181 -177 -183 -159 -3 17 31 57 145 171 141 143
169 166 203 167 8 1 -66 -80 -165 -179z m40 -30 c-115 -115 -213 -210 -217
-210 -31 0 18 61 184 227 148 148 199 193 218 193 21 0 -10 -35 -185 -210z
m40 -30 c-132 -132 -243 -240 -247 -240 -32 0 22 65 214 257 172 172 229 223
248 223 21 0 -16 -41 -215 -240z m45 -25 c-146 -146 -271 -265 -277 -265 -7 0
-13 6 -13 12 0 7 114 127 252 265 196 196 259 253 278 253 20 0 -21 -46 -240
-265z m320 262 c0 -2 -551 -554 -575 -576 -3 -2 -8 4 -11 13 -9 25 530 566
564 566 12 0 22 -1 22 -3z m-45 -118 c-103 -104 -161 -149 -192 -149 -4 0 53
61 127 135 101 101 141 135 160 135 21 0 8 -17 -95 -121z m65 -4 c-93 -93
-131 -125 -150 -125 -21 0 -6 18 100 125 93 93 131 125 150 125 21 0 6 -18
-100 -125z m70 0 c-107 -108 -160 -146 -160 -118 0 4 53 61 117 125 88 88 124
118 143 118 21 0 7 -18 -100 -125z m-450 102 c0 -1 -58 -61 -130 -132 -107
-107 -130 -126 -130 -106 0 17 29 54 98 123 53 55 106 104 117 108 20 9 45 13
45 7z m1733 -28 c-3 -17 -62 -84 -164 -185 -133 -133 -159 -155 -159 -134 0
19 40 65 162 187 89 89 163 161 164 160 1 -1 0 -14 -3 -28z m-1833 -2 c0 -1
-30 -32 -66 -67 -55 -53 -63 -59 -48 -31 19 34 114 116 114 98z m1060 -36 c-5
-9 -81 -88 -170 -176 -137 -135 -161 -156 -158 -132 2 20 44 69 163 187 102
102 162 155 166 148 4 -7 4 -19 -1 -27z m2330 22 c0 -9 -75 -93 -167 -185
-141 -141 -169 -165 -171 -147 -3 17 32 58 159 185 90 90 167 164 171 164 5 0
8 -8 8 -17z m-770 -15 c0 -15 -52 -74 -162 -185 -89 -90 -166 -163 -170 -163
-32 0 13 58 160 203 92 92 168 167 170 167 1 0 2 -10 2 -22z m-786 -35 c-6
-27 -266 -301 -306 -324 -15 -8 -18 -6 -18 12 0 16 49 72 157 181 86 87 161
158 165 158 5 0 6 -12 2 -27z m-775 -43 c-12 -23 -574 -580 -584 -580 -6 0
-16 4 -22 8 -18 11 214 239 247 244 18 2 26 10 28 28 2 17 57 79 165 187 128
129 163 159 168 145 4 -9 3 -24 -2 -32z m2328 18 c-4 -13 -81 -97 -172 -188
-138 -138 -165 -161 -165 -140 0 19 41 66 167 192 92 92 169 165 171 163 3 -2
2 -14 -1 -27z m-767 -5 c0 -17 -316 -343 -332 -343 -5 0 -8 8 -8 17 0 16 316
343 332 343 4 0 8 -8 8 -17z m-785 -35 c-4 -13 -77 -94 -163 -181 -131 -131
-158 -154 -160 -136 -3 17 32 58 154 180 88 88 162 159 167 159 5 0 5 -10 2
-22z m-1032 -300 c-204 -204 -263 -257 -277 -252 -15 6 34 59 256 281 224 225
274 270 276 252 3 -17 -52 -78 -255 -281z m2587 281 c0 -15 -54 -75 -165 -185
-90 -90 -167 -164 -170 -164 -3 0 -5 10 -5 21 0 15 54 76 163 185 89 90 165
164 170 164 4 0 7 -10 7 -21z m-770 -16 c0 -17 -316 -343 -332 -343 -5 0 -8 8
-8 17 0 16 316 343 332 343 4 0 8 -8 8 -17z m-785 -35 c-4 -13 -77 -94 -163
-181 -131 -131 -158 -154 -160 -136 -3 17 32 58 154 180 88 88 162 159 167
159 5 0 5 -10 2 -22z m-997 -265 c-176 -176 -228 -222 -242 -217 -15 6 27 52
221 246 196 196 239 235 241 217 3 -17 -45 -71 -220 -246z m2552 249 c0 -9
-76 -94 -170 -187 -142 -142 -170 -166 -170 -145 0 19 40 65 162 187 90 90
166 163 170 163 5 0 8 -8 8 -18z m-931 -198 c-90 -90 -167 -164 -171 -164 -30
0 14 56 160 202 140 141 168 165 170 147 3 -17 -32 -58 -159 -185z m-2276 135
c-3 -16 -55 -76 -138 -159 -110 -109 -135 -131 -141 -116 -5 14 26 50 137 162
78 79 144 142 145 141 1 -1 0 -14 -3 -28z m1652 9 c-4 -13 -77 -94 -163 -181
-131 -131 -158 -154 -160 -136 -3 17 32 58 154 180 88 88 162 159 167 159 5 0
5 -10 2 -22z m-962 -230 c-146 -145 -194 -187 -207 -182 -14 6 23 47 186 211
169 169 204 200 206 181 3 -17 -37 -62 -185 -210z m2517 214 c0 -9 -76 -94
-170 -187 -142 -142 -170 -166 -170 -145 0 19 40 65 162 187 90 90 166 163
170 163 5 0 8 -8 8 -18z m-931 -198 c-90 -90 -167 -164 -171 -164 -30 0 14 56
160 202 140 141 168 165 170 147 3 -17 -32 -58 -159 -185z m-624 144 c-4 -13
-77 -94 -163 -181 -131 -131 -158 -154 -160 -136 -3 17 32 58 154 180 88 88
162 159 167 159 5 0 5 -10 2 -22z m-1655 -16 c0 -9 -52 -69 -115 -132 -91 -91
-117 -112 -127 -102 -10 10 12 37 107 132 66 66 123 120 127 120 5 0 8 -8 8
-18z m733 -174 c-111 -111 -157 -150 -177 -152 -24 -3 -1 23 145 170 145 145
175 171 177 153 3 -17 -30 -56 -145 -171z m2477 174 c0 -10 -72 -89 -160 -177
-125 -124 -163 -156 -172 -147 -10 10 24 48 152 177 91 91 168 165 172 165 5
0 8 -8 8 -18z m-912 -179 c-134 -135 -171 -164 -186 -149 -3 4 68 81 158 172
137 137 166 161 168 143 3 -17 -29 -55 -140 -166z m-643 125 c-9 -34 -243
-265 -277 -273 -16 -4 -28 -5 -28 -2 0 7 304 306 308 303 2 -2 0 -15 -3 -28z
m-1628 6 c2 -5 -46 -59 -107 -119 -87 -87 -112 -107 -122 -97 -10 10 10 35 97
122 103 103 124 118 132 94z m855 -23 c-5 -39 -217 -251 -255 -255 -15 -2 -27
-1 -27 3 0 8 273 281 281 281 3 0 4 -13 1 -29z m2328 7 c0 -14 -39 -61 -112
-135 -118 -120 -141 -138 -159 -127 -7 4 46 64 127 145 76 77 140 139 141 139
2 0 3 -10 3 -22z m-3136 -5 c10 -10 -206 -223 -226 -223 -10 0 -18 3 -18 7 0
12 214 223 226 223 6 0 14 -3 18 -7z m2254 -150 c-82 -81 -121 -113 -139 -113
-20 0 -1 23 111 135 114 115 136 132 138 113 3 -17 -22 -48 -110 -135z m-2188
140 c0 -17 -226 -233 -243 -233 -10 0 -17 5 -15 10 8 24 223 230 240 230 10 0
18 -3 18 -7z m-55 -123 c-103 -104 -155 -141 -155 -112 0 4 51 57 113 119 98
97 140 129 157 116 2 -2 -50 -58 -115 -123z m63 -7 c-97 -97 -130 -124 -144
-119 -15 6 3 28 101 126 103 103 146 136 165 123 2 -2 -53 -61 -122 -130z m82
11 c-121 -121 -146 -142 -161 -127 -11 11 218 240 246 245 11 3 22 3 25 1 2
-2 -48 -56 -110 -119z m70 0 c-121 -121 -146 -142 -161 -127 -11 11 218 240
246 245 11 3 22 3 25 1 2 -2 -48 -56 -110 -119z m70 0 c-122 -123 -146 -142
-162 -126 -5 5 35 52 107 123 102 100 149 135 165 122 2 -2 -48 -56 -110 -119z
m1290 90 c0 -20 -185 -211 -213 -220 -10 -3 -21 -3 -25 0 -6 7 217 236 230
236 5 0 8 -7 8 -16z m-778 -31 c-7 -38 -152 -184 -186 -187 -14 -2 -26 -1 -26
3 0 8 203 211 211 211 3 0 4 -12 1 -27z m2328 6 c0 -13 -30 -53 -77 -101 -87
-89 -110 -105 -126 -89 -8 8 18 39 88 111 55 55 103 100 107 100 4 0 8 -10 8
-21z m-770 -19 c0 -26 -155 -180 -181 -180 -10 0 -19 3 -19 7 0 7 189 193 196
193 2 0 4 -9 4 -20z m-780 -26 c0 -9 -28 -44 -61 -80 -59 -61 -93 -83 -107
-70 -6 7 147 166 160 166 5 0 8 -7 8 -16z m-777 -26 c-8 -32 -90 -115 -119
-121 -13 -2 -24 -2 -24 2 0 8 133 141 141 141 4 0 5 -10 2 -22z m2327 4 c0
-10 -19 -38 -43 -62 -59 -62 -72 -71 -92 -64 -14 6 -4 20 51 75 38 38 72 69
76 69 5 0 8 -8 8 -18z m-770 -19 c0 -23 -89 -113 -112 -113 -28 0 -22 10 39
72 61 62 73 68 73 41z m-780 -29 c0 -9 -15 -31 -34 -50 -31 -31 -66 -45 -66
-27 0 10 82 93 92 93 4 0 8 -7 8 -16z m-777 -29 c-6 -28 -18 -40 -50 -48 -31
-7 -29 1 9 40 38 39 47 41 41 8z m2327 7 c0 -27 -43 -64 -64 -56 -15 6 -13 11
15 40 37 38 49 42 49 16z m-780 -48 c-13 -14 -50 -20 -50 -7 0 4 12 20 28 36
26 27 27 28 30 7 2 -12 -2 -28 -8 -36z m-770 7 c0 -12 -20 -25 -27 -18 -7 7 6
27 18 27 5 0 9 -4 9 -9z m-1820 -474 c0 -2 -9 -12 -20 -22 -19 -18 -20 -17
-20 3 0 15 6 22 20 22 11 0 20 -2 20 -3z m20 -52 c-49 -50 -55 -53 -58 -34 -5
28 54 88 88 89 22 0 20 -5 -30 -55z m35 -35 c-77 -78 -90 -88 -93 -69 -5 31
122 159 158 159 21 0 14 -11 -65 -90z m35 -35 c-105 -106 -126 -122 -128 -104
-5 31 192 229 228 229 21 0 7 -18 -100 -125z m35 -35 c-133 -134 -161 -157
-163 -139 -5 32 262 299 298 299 21 0 0 -25 -135 -160z m214 155 c-2 -2 -87
-88 -189 -190 -132 -133 -186 -182 -189 -169 -4 22 336 364 363 364 11 0 17
-2 15 -5z m-149 -220 c-173 -173 -226 -221 -228 -206 -5 29 393 429 428 430
20 1 -17 -41 -200 -224z m35 -35 c-214 -214 -261 -257 -263 -239 -5 32 461
499 498 499 21 0 -20 -45 -235 -260z m35 -35 c-242 -242 -296 -291 -298 -274
-5 32 531 569 568 569 20 0 -27 -52 -270 -295z m225 155 c-77 -77 -148 -143
-157 -146 -10 -3 -18 -11 -18 -17 0 -7 -79 -91 -175 -187 -146 -146 -175 -171
-175 -150 0 36 604 640 640 640 21 0 3 -22 -115 -140z m184 123 c-8 -9 -72
-74 -143 -145 -84 -84 -135 -128 -149 -128 -17 0 14 36 123 145 84 84 153 145
164 145 16 0 17 -2 5 -17z m-59 -128 c-90 -90 -152 -145 -165 -145 -14 0 22
42 125 145 90 90 152 145 165 145 14 0 -22 -42 -125 -145z m200 138 c0 -4 -62
-70 -137 -145 -104 -104 -144 -138 -163 -138 -21 0 -3 22 120 145 125 125 180
167 180 138z m1100 3 c0 -3 -4 -8 -10 -11 -5 -3 -10 -1 -10 4 0 6 5 11 10 11
6 0 10 -2 10 -4z m30 -42 c-34 -34 -46 -41 -48 -29 -5 22 46 75 72 75 17 0 12
-8 -24 -46z m35 -34 c-58 -58 -81 -76 -83 -64 -5 22 116 144 142 144 16 0 1
-20 -59 -80z m35 -35 c-89 -90 -116 -111 -118 -96 -5 28 175 211 208 211 21 0
8 -17 -90 -115z m35 -35 c-125 -126 -151 -147 -153 -129 -5 31 242 279 278
279 21 0 2 -23 -125 -150z m35 -35 c-153 -154 -186 -182 -188 -164 -5 32 312
349 348 349 21 0 -5 -30 -160 -185z m239 180 c-2 -2 -98 -100 -214 -216 -151
-152 -211 -206 -214 -194 -4 23 386 415 413 415 11 0 17 -2 15 -5z m-174 -245
c-172 -172 -251 -245 -254 -234 -4 23 456 484 484 484 14 0 -57 -77 -230 -250z
m35 -35 c-195 -196 -286 -280 -289 -269 -2 11 30 50 83 103 47 47 165 167 263
267 129 131 185 181 203 182 20 2 -35 -58 -260 -283z m35 -35 c-255 -256 -321
-316 -323 -299 -5 30 582 619 618 619 20 0 -33 -58 -295 -320z m240 170 c-113
-113 -156 -150 -175 -150 -21 0 -2 23 125 150 113 113 156 150 175 150 21 0 2
-23 -125 -150z m70 0 c-113 -113 -156 -150 -175 -150 -21 0 -2 23 125 150 113
113 156 150 175 150 21 0 2 -23 -125 -150z m60 0 c-93 -93 -157 -150 -170
-150 -14 0 23 43 130 150 93 93 157 150 170 150 14 0 -23 -43 -130 -150z m70
0 c-82 -82 -158 -150 -167 -150 -10 0 -18 1 -18 3 0 2 64 69 143 149 103 106
149 146 167 147 20 1 -2 -26 -125 -149z m70 0 c-113 -113 -156 -150 -175 -150
-21 0 -2 23 125 150 113 113 156 150 175 150 21 0 2 -23 -125 -150z m-1980 0
c-105 -105 -146 -140 -165 -140 -21 0 -4 21 115 140 105 105 146 140 165 140
21 0 4 -21 -115 -140z m62 -6 c-97 -98 -140 -134 -158 -134 -20 0 0 24 115
139 106 106 143 137 158 133 16 -4 -4 -28 -115 -138z m1983 1 c-109 -109 -151
-145 -170 -145 -21 0 -3 22 120 145 109 109 151 145 170 145 21 0 3 -22 -120
-145z m64 -6 c-104 -105 -145 -139 -164 -139 -21 0 -3 22 119 144 111 111 148
142 163 138 17 -4 -4 -29 -118 -143z m-1864 127 c0 -1 -57 -59 -126 -129 -83
-83 -134 -127 -147 -127 -17 0 11 33 112 134 80 80 139 132 147 129 8 -3 14
-6 14 -7z m1928 -133 c-98 -97 -141 -133 -159 -133 -20 0 0 24 115 139 108
108 143 137 158 133 17 -4 -1 -27 -114 -139z m-1878 119 c0 -4 -56 -63 -124
-131 -80 -79 -128 -121 -136 -116 -8 5 29 48 111 131 110 111 149 141 149 116z
m2050 1 c0 -4 -57 -65 -127 -135 -113 -114 -153 -145 -153 -121 0 4 57 65 127
135 113 114 153 145 153 121z m-2000 -20 c0 -4 -52 -60 -116 -124 -75 -75
-122 -115 -131 -112 -10 4 22 42 103 124 105 106 144 136 144 112z m2044 -1
c3 -5 -53 -66 -124 -137 -103 -103 -132 -127 -142 -117 -10 10 13 38 112 137
118 118 142 136 154 117z m-2000 -19 c10 -10 -216 -233 -236 -233 -10 0 -18 3
-18 7 0 12 224 233 236 233 6 0 14 -3 18 -7z m2043 -9 c2 -5 -55 -68 -127
-139 -103 -103 -132 -127 -142 -117 -10 10 14 39 117 142 121 121 144 138 152
114z m-2000 -20 c2 -5 -48 -60 -109 -121 -88 -87 -116 -110 -128 -103 -12 8 8
32 100 125 107 107 129 123 137 99z m2040 -10 c2 -5 -58 -70 -132 -144 -107
-107 -137 -132 -147 -122 -10 10 15 40 122 147 126 126 149 144 157 119z
m-1997 -17 c0 -7 -51 -63 -113 -125 -89 -89 -115 -110 -125 -100 -10 10 11 36
100 125 106 107 138 130 138 100z m2030 -20 c0 -7 -65 -76 -144 -155 -116
-117 -145 -140 -150 -126 -5 14 26 51 135 160 132 132 159 153 159 121z
m-1996 -6 c10 -15 -226 -243 -238 -231 -7 7 25 46 104 125 63 63 118 115 122
115 4 0 9 -4 12 -9z m1871 -191 c-112 -112 -161 -155 -163 -144 -5 23 299 327
312 314 7 -7 -43 -64 -149 -170z m-1950 30 c-66 -66 -123 -120 -127 -120 -24
0 4 37 109 142 78 78 121 114 127 108 7 -7 -29 -50 -109 -130z m149 93 c7 -7
-242 -263 -256 -263 -24 0 5 38 114 147 68 68 125 123 129 123 3 0 9 -3 13 -7z
m1976 -5 c0 -7 -159 -172 -352 -365 -260 -260 -359 -353 -376 -353 -18 0 10
33 137 159 88 88 168 162 178 165 10 4 31 25 48 49 37 53 336 354 353 356 6 0
12 -5 12 -11z m-1950 -41 c0 -7 -60 -72 -134 -146 -105 -105 -135 -129 -140
-116 -5 13 26 50 121 146 121 121 153 146 153 116z m1644 -348 c-257 -257
-334 -329 -354 -329 -20 0 37 62 320 345 277 277 346 341 353 329 8 -13 -58
-84 -319 -345z m-1617 305 c2 -5 -62 -74 -142 -154 -122 -122 -145 -141 -145
-120 0 18 34 59 132 157 124 124 147 142 155 117z m691 -211 c-144 -144 -174
-170 -176 -152 -3 17 35 61 170 196 144 144 174 170 176 152 3 -17 -35 -61
-170 -196z m1262 190 c0 -10 -134 -152 -297 -315 -232 -232 -303 -298 -323
-298 -20 0 31 56 290 315 173 173 318 315 322 315 5 0 8 -8 8 -17z m-3192
-203 c-126 -125 -174 -168 -177 -155 -2 12 53 74 170 192 130 130 175 169 177
155 2 -13 -50 -72 -170 -192z m1262 177 c0 -7 -67 -79 -150 -162 -121 -121
-150 -146 -156 -131 -5 14 27 51 141 166 138 138 165 159 165 127z m668 -234
c-144 -144 -174 -170 -176 -152 -3 17 35 61 170 196 144 144 174 170 176 152
3 -17 -35 -61 -170 -196z m1266 195 c-3 -12 -127 -142 -274 -290 -200 -200
-274 -268 -291 -268 -19 0 36 60 266 290 159 160 294 290 298 290 5 0 5 -10 1
-22z m-1914 -6 c0 -9 -72 -89 -160 -177 -134 -134 -160 -156 -160 -135 0 19
38 63 152 177 84 84 156 153 160 153 5 0 8 -8 8 -18z m-1281 -199 c-121 -120
-175 -168 -178 -157 -2 11 59 78 170 191 121 120 175 168 178 157 2 -11 -59
-78 -170 -191z m1141 -22 c-91 -92 -168 -169 -172 -170 -5 0 -8 7 -8 16 0 25
322 345 334 333 7 -7 -46 -68 -154 -179z m2056 162 c-10 -31 -492 -506 -506
-498 -8 5 73 93 246 266 142 142 260 256 262 254 2 -2 1 -12 -2 -22z m-1267
-190 c-121 -120 -175 -168 -178 -157 -2 11 59 78 170 191 121 120 175 168 178
157 2 -11 -59 -78 -170 -191z m-1931 -20 c-144 -144 -174 -170 -176 -152 -3
17 35 61 170 196 144 144 174 170 176 152 3 -17 -35 -61 -170 -196z m1141 -20
c-121 -120 -175 -168 -178 -157 -2 11 59 78 170 191 121 120 175 168 178 157
2 -11 -59 -78 -170 -191z m787 -32 c-131 -131 -176 -170 -176 -155 0 29 343
371 349 348 2 -11 -60 -80 -173 -193z m1255 178 c-15 -38 -427 -443 -441 -434
-8 5 64 83 216 236 125 125 230 227 231 225 2 -2 -1 -14 -6 -27z m-3183 -196
c-144 -144 -174 -170 -176 -152 -3 17 35 61 170 196 144 144 174 170 176 152
3 -17 -35 -61 -170 -196z m1149 -11 c-126 -126 -183 -177 -186 -166 -4 23 350
378 361 361 5 -8 -56 -75 -175 -195z m781 -39 c-144 -144 -174 -170 -176 -152
-3 17 35 61 170 196 144 144 174 170 176 152 3 -17 -35 -61 -170 -196z m-1930
-19 c-143 -144 -174 -170 -176 -153 -3 17 36 62 170 196 141 142 174 170 176
152 3 -16 -38 -63 -170 -195z m1332 188 c0 -9 -85 -103 -190 -207 -149 -149
-190 -185 -190 -167 0 16 53 76 183 207 100 102 185 185 190 185 4 0 7 -8 7
-18z m1811 -21 c-21 -39 -161 -167 -161 -147 0 9 154 166 163 166 4 0 3 -8 -2
-19z m-1198 -203 c-156 -156 -189 -185 -191 -167 -5 32 331 369 360 361 16 -4
-14 -39 -169 -194z m592 52 c-93 -93 -157 -150 -170 -150 -25 0 258 287 289
293 12 2 23 5 26 6 3 0 -63 -66 -145 -149z m-1396 -106 c-112 -112 -205 -202
-206 -200 -15 15 46 89 210 254 159 159 193 189 195 171 3 -17 -41 -67 -199
-225z m841 21 c-185 -186 -226 -222 -228 -204 -5 32 391 429 428 429 21 0 -13
-38 -200 -225z m40 -30 c-140 -140 -258 -255 -262 -255 -33 -1 24 67 229 272
183 183 244 238 263 238 20 0 -20 -45 -230 -255z m25 -35 c-256 -256 -307
-301 -293 -260 2 6 125 132 273 280 173 173 277 270 290 270 14 0 -71 -91
-270 -290z m35 -35 c-265 -266 -326 -321 -328 -304 -5 32 591 629 628 629 20
0 -34 -59 -300 -325z m250 180 c-109 -109 -151 -145 -170 -145 -21 0 -3 22
120 145 109 109 151 145 170 145 21 0 3 -22 -120 -145z m70 0 c-109 -109 -151
-145 -170 -145 -21 0 -3 22 120 145 109 109 151 145 170 145 21 0 3 -22 -120
-145z m70 0 c-110 -110 -150 -145 -170 -145 -21 0 -3 22 120 145 107 108 151
145 169 145 21 0 1 -24 -119 -145z m-2300 117 c0 -27 -344 -368 -349 -346 -2
11 56 76 170 190 96 96 175 174 176 174 2 0 3 -8 3 -18z m1180 -65 c0 -12
-451 -469 -458 -463 -2 2 4 19 13 38 20 39 425 449 437 442 4 -3 8 -10 8 -17z
m-1351 -194 c-121 -120 -175 -168 -178 -157 -2 11 59 78 170 191 121 120 175
168 178 157 2 -11 -59 -78 -170 -191z m1349 132 c-6 -29 -800 -815 -822 -815
-15 0 102 122 394 415 228 228 419 415 423 415 5 0 7 -7 5 -15z m-1349 -202
c-121 -120 -175 -168 -178 -157 -2 11 59 78 170 191 121 120 175 168 178 157
2 -11 -59 -78 -170 -191z m2978 199 c9 -5 -19 -39 -87 -107 -80 -80 -102 -97
-112 -87 -10 10 6 31 82 107 52 51 97 94 100 94 3 0 11 -3 17 -7z m53 -31 c0
-3 -49 -55 -109 -115 -89 -88 -109 -105 -115 -90 -5 14 17 42 95 120 60 61
107 100 115 97 8 -3 14 -8 14 -12z m-2046 -412 c-239 -240 -376 -369 -389
-369 -14 0 102 122 365 385 262 263 386 380 389 369 2 -11 -123 -143 -365
-385z m2082 390 c6 -11 -222 -249 -238 -249 -5 0 -8 8 -8 17 0 17 216 243 232
243 4 0 10 -5 14 -11z m-3068 -216 c-144 -144 -174 -170 -176 -152 -3 17 35
61 170 196 144 144 174 170 176 152 3 -17 -35 -61 -170 -196z m3102 174 c0
-10 -266 -277 -276 -277 -2 0 -4 8 -4 17 0 20 260 284 272 277 4 -3 8 -10 8
-17z m34 -24 c11 -11 -676 -693 -698 -693 -14 0 95 115 329 350 193 192 353
350 356 350 3 0 9 -3 13 -7z m-3136 -220 c-144 -144 -174 -170 -176 -152 -3
17 35 61 170 196 144 144 174 170 176 152 3 -17 -35 -61 -170 -196z m1016
-144 c-217 -217 -336 -329 -349 -329 -14 0 84 104 325 345 234 234 346 340
349 329 2 -11 -111 -131 -325 -345z m2146 319 c0 -22 -633 -648 -655 -648 -14
0 83 103 310 330 181 182 333 330 337 330 5 0 8 -6 8 -12z m-1232 -225 c-144
-144 -174 -170 -176 -152 -3 17 35 61 170 196 144 144 174 170 176 152 3 -17
-35 -61 -170 -196z m-592 180 c-5 -18 -105 -126 -289 -310 -243 -244 -317
-308 -317 -276 0 6 602 613 609 613 2 0 0 -12 -3 -27z m-1338 -200 c-144 -144
-174 -170 -176 -152 -3 17 35 61 170 196 144 144 174 170 176 152 3 -17 -35
-61 -170 -196z m2891 -109 c-162 -162 -302 -294 -311 -294 -10 0 -18 2 -18 4
0 2 138 142 308 311 219 220 308 302 311 290 2 -12 -89 -110 -290 -311z m-961
59 c-144 -144 -174 -170 -176 -152 -3 17 35 61 170 196 144 144 174 170 176
152 3 -17 -35 -61 -170 -196z m1272 194 c0 -7 -120 -132 -267 -279 -208 -208
-273 -268 -293 -268 -20 0 25 50 259 284 157 157 288 283 293 280 4 -3 8 -11
8 -17z m-3030 -16 c0 -27 -344 -368 -349 -345 -2 11 56 75 170 190 96 96 175
174 176 174 2 0 3 -8 3 -19z m1147 -23 c-4 -13 -111 -128 -240 -255 -177 -177
-239 -233 -257 -233 -20 0 24 48 235 260 142 142 261 257 263 255 3 -2 2 -14
-1 -27z m1887 -15 c10 -25 -459 -493 -494 -493 -21 0 18 43 230 255 140 140
256 255 256 255 1 0 5 -8 8 -17z m-1270 -204 c-93 -93 -172 -169 -176 -169
-31 0 15 58 165 208 143 143 173 169 175 151 3 -17 -34 -60 -164 -190z m-1935
-16 c-121 -120 -175 -168 -178 -157 -2 11 59 78 170 191 121 120 175 168 178
157 2 -11 -59 -78 -170 -191z m1288 136 c-23 -52 -324 -347 -367 -359 -30 -9
-5 20 170 195 112 112 206 203 208 201 2 -2 -3 -19 -11 -37z m1918 9 c-9 -29
-372 -396 -404 -409 -13 -5 -26 -7 -29 -4 -7 6 418 435 431 435 5 0 5 -10 2
-22z m-1276 -195 c-121 -120 -175 -168 -178 -157 -2 11 59 78 170 191 121 120
175 168 178 157 2 -11 -59 -78 -170 -191z m-1930 -20 c-121 -120 -175 -168
-178 -157 -2 11 59 78 170 191 121 120 175 168 178 157 2 -11 -59 -78 -170
-191z m3201 149 c0 -10 -54 -73 -120 -140 -152 -155 -189 -188 -220 -197 -16
-4 38 56 155 174 99 100 181 181 182 181 2 0 3 -8 3 -18z m-1100 -9 c0 -20
-318 -343 -337 -343 -7 0 -13 4 -13 10 0 11 330 347 343 349 4 1 7 -7 7 -16z
m-1930 -20 c0 -10 -69 -86 -152 -170 -111 -111 -159 -153 -176 -153 -20 0 8
32 144 170 93 93 172 170 177 170 4 0 7 -8 7 -17z m485 -153 c-129 -129 -176
-170 -195 -170 -21 0 -2 23 125 151 133 134 198 187 230 189 5 0 -67 -76 -160
-170z m579 128 c-25 -48 -137 -160 -186 -187 -36 -20 -25 -5 77 98 66 66 121
121 123 121 1 0 -5 -15 -14 -32z m-669 -148 c-114 -114 -156 -150 -175 -150
-21 0 -2 23 126 150 111 111 157 150 175 150 20 0 -2 -26 -126 -150z m1550
144 c25 -10 -260 -294 -295 -294 -21 0 -2 23 125 150 82 83 151 150 152 150 1
0 9 -3 18 -6z m565 0 c0 -3 -66 -70 -147 -150 -93 -92 -154 -144 -167 -144
-15 0 19 39 129 150 82 83 158 150 167 150 10 0 18 -3 18 -6z m-2600 -149
c-109 -109 -151 -145 -170 -145 -21 0 -3 22 120 145 109 109 151 145 170 145
21 0 3 -22 -120 -145z m70 0 c-109 -109 -151 -145 -170 -145 -21 0 -3 22 120
145 109 109 151 145 170 145 21 0 3 -22 -120 -145z m69 0 c-107 -107 -152
-145 -170 -145 -20 0 1 25 121 145 110 110 151 145 170 145 21 0 3 -22 -121
-145z m61 0 c-90 -90 -152 -145 -165 -145 -14 0 22 42 125 145 90 90 152 145
165 145 14 0 -22 -42 -125 -145z m70 0 c-90 -90 -152 -145 -165 -145 -14 0 22
42 125 145 90 90 152 145 165 145 14 0 -22 -42 -125 -145z m70 0 c-90 -90
-152 -145 -165 -145 -14 0 22 42 125 145 90 90 152 145 165 145 14 0 -22 -42
-125 -145z m70 0 c-103 -103 -151 -145 -168 -145 -18 0 5 28 120 145 107 108
149 145 168 145 21 0 2 -23 -120 -145z m1570 0 c-109 -109 -151 -145 -170
-145 -21 0 -3 22 120 145 109 109 151 145 170 145 21 0 3 -22 -120 -145z m67
0 c-103 -103 -152 -145 -169 -145 -18 0 6 29 122 145 104 105 151 145 168 145
19 0 -3 -27 -121 -145z m63 0 c-90 -90 -152 -145 -165 -145 -14 0 22 42 125
145 90 90 152 145 165 145 14 0 -22 -42 -125 -145z m70 0 c-90 -90 -152 -145
-165 -145 -14 0 22 42 125 145 90 90 152 145 165 145 14 0 -22 -42 -125 -145z
m70 0 c-102 -103 -151 -145 -168 -145 -18 0 5 28 120 145 108 110 149 145 168
145 21 0 2 -22 -120 -145z m70 0 c-109 -109 -151 -145 -170 -145 -21 0 -3 22
120 145 109 109 151 145 170 145 21 0 3 -22 -120 -145z m70 0 c-109 -109 -151
-145 -170 -145 -21 0 -3 22 120 145 109 109 151 145 170 145 21 0 3 -22 -120
-145z m701 104 c-13 -34 -181 -195 -211 -204 -17 -5 11 30 95 114 65 66 120
119 122 117 2 -2 -1 -14 -6 -27z m-1501 -29 c0 -6 -73 -10 -200 -10 -127 0
-200 4 -200 10 0 6 73 10 200 10 127 0 200 -4 200 -10z"/>
<path d="M384 4018 l-19 -23 23 19 c21 18 27 26 19 26 -2 0 -12 -10 -23 -22z"/>
</g>
</svg>
